<svg width="23" height="19" viewBox="0 0 23 19" fill="none" xmlns="http://www.w3.org/2000/svg">
<g filter="url(#filter0_d_250_1273)">
<path d="M10.6388 0.399049C10.7674 0.525095 10.8695 0.674867 10.9391 0.83978C11.0088 1.00469 11.0446 1.1815 11.0446 1.36007C11.0446 1.53864 11.0088 1.71544 10.9391 1.88036C10.8695 2.04527 10.7674 2.19505 10.6388 2.32109L4.71861 8.14262L21.6203 8.14262C21.9862 8.14262 22.3371 8.28556 22.5959 8.54C22.8546 8.79444 23 9.13953 23 9.49936C23 9.85919 22.8546 10.2043 22.5959 10.4587C22.3371 10.7132 21.9862 10.8561 21.6203 10.8561L4.71861 10.8561L10.6388 16.6799C10.898 16.9348 11.0436 17.2805 11.0436 17.6409C11.0436 18.0014 10.898 18.3471 10.6388 18.6019C10.3796 18.8568 10.028 19 9.66148 19C9.29492 19 8.94337 18.8568 8.68418 18.6019L0.405808 10.4615C0.27718 10.3355 0.175122 10.1857 0.105484 10.0208C0.0358463 9.85587 -4.07431e-07 9.67906 -4.15237e-07 9.50049C-4.23042e-07 9.32193 0.0358463 9.14511 0.105484 8.9802C0.175122 8.81529 0.27718 8.66551 0.405808 8.53947L8.68417 0.399049C8.81236 0.272565 8.96467 0.172206 9.13238 0.103729C9.30008 0.0352512 9.47989 1.49297e-06 9.66148 1.48503e-06C9.84307 1.47709e-06 10.0229 0.0352512 10.1906 0.103729C10.3583 0.172206 10.5106 0.272565 10.6388 0.399049Z" fill="#5599FF"/>
</g>
<defs>
<filter id="filter0_d_250_1273" x="-4" y="-2" width="31" height="27" filterUnits="userSpaceOnUse" color-interpolation-filters="sRGB">
<feFlood flood-opacity="0" result="BackgroundImageFix"/>
<feColorMatrix in="SourceAlpha" type="matrix" values="0 0 0 0 0 0 0 0 0 0 0 0 0 0 0 0 0 0 127 0" result="hardAlpha"/>
<feOffset dy="2"/>
<feGaussianBlur stdDeviation="2"/>
<feComposite in2="hardAlpha" operator="out"/>
<feColorMatrix type="matrix" values="0 0 0 0 0 0 0 0 0 0 0 0 0 0 0 0 0 0 0.25 0"/>
<feBlend mode="normal" in2="BackgroundImageFix" result="effect1_dropShadow_250_1273"/>
<feBlend mode="normal" in="SourceGraphic" in2="effect1_dropShadow_250_1273" result="shape"/>
</filter>
</defs>
</svg>
