<svg width="18" height="12" viewBox="0 0 18 12" fill="none" xmlns="http://www.w3.org/2000/svg">
<g filter="url(#filter0_d_250_1203)">
<path d="M1 12H17C17.55 12 18 11.55 18 11C18 10.45 17.55 10 17 10H1C0.45 10 0 10.45 0 11C0 11.55 0.45 12 1 12ZM1 7H17C17.55 7 18 6.55 18 6C18 5.45 17.55 5 17 5H1C0.45 5 0 5.45 0 6C0 6.55 0.45 7 1 7ZM0 1C0 1.55 0.45 2 1 2H17C17.55 2 18 1.55 18 1C18 0.45 17.55 0 17 0H1C0.45 0 0 0.45 0 1Z" fill="#5599FF"/>
</g>
<defs>
<filter id="filter0_d_250_1203" x="-4" y="-2" width="26" height="20" filterUnits="userSpaceOnUse" color-interpolation-filters="sRGB">
<feFlood flood-opacity="0" result="BackgroundImageFix"/>
<feColorMatrix in="SourceAlpha" type="matrix" values="0 0 0 0 0 0 0 0 0 0 0 0 0 0 0 0 0 0 127 0" result="hardAlpha"/>
<feOffset dy="2"/>
<feGaussianBlur stdDeviation="2"/>
<feComposite in2="hardAlpha" operator="out"/>
<feColorMatrix type="matrix" values="0 0 0 0 0 0 0 0 0 0 0 0 0 0 0 0 0 0 0.25 0"/>
<feBlend mode="normal" in2="BackgroundImageFix" result="effect1_dropShadow_250_1203"/>
<feBlend mode="normal" in="SourceGraphic" in2="effect1_dropShadow_250_1203" result="shape"/>
</filter>
</defs>
</svg>
