<svg width="287" height="290" viewBox="0.088836669921875 0.06622314453125 286.82232666015625 289.8675537109375" fill="none" xmlns="http://www.w3.org/2000/svg">
<path d="M176.191 247.215C194.619 249.259 254.423 201.694 255.79 180.691L238.485 171.128L224.1 149.1L200.686 128.065C220.341 117.744 237.416 114.638 222.963 93.6592C206.568 69.8631 203.799 104.54 183.356 102.682C162.912 100.823 154.871 62.3345 155.654 26.0018C109.38 24.0441 48.7503 64.3906 51.2666 106.738C78.2039 97.9458 78.6077 132.247 91.0167 144.128C103.426 156.009 116.276 136.808 131.015 161.496C133.357 190.333 97.371 208.52 79.0856 214.009C84.7174 219.297 89.2576 227.854 114.964 237.964C142.896 238.2 158.823 171.743 179.931 195.791C193.688 219.36 175.675 230.836 176.191 247.215Z" fill="#555CFF"/>
</svg>
