<svg width="16" height="16" viewBox="0 0 16 16" fill="none" xmlns="http://www.w3.org/2000/svg">
<path d="M8 1C8.79565 1 9.55871 1.31607 10.1213 1.87868C10.6839 2.44129 11 3.20435 11 4C11 4.79565 10.6839 5.55871 10.1213 6.12132C9.55871 6.68393 8.79565 7 8 7C7.20435 7 6.44129 6.68393 5.87868 6.12132C5.31607 5.55871 5 4.79565 5 4C5 3.20435 5.31607 2.44129 5.87868 1.87868C6.44129 1.31607 7.20435 1 8 1ZM8 11C10.0885 11 11.929 11.425 13.2103 12.0657C14.5511 12.7361 15 13.4776 15 14V15H1V14C1 13.4776 1.44887 12.7361 2.78971 12.0657C4.071 11.425 5.91146 11 8 11Z" stroke="#5599FF" stroke-width="2"/>
</svg>
