<svg width="14" height="9" viewBox="0 0 14 9" fill="none" xmlns="http://www.w3.org/2000/svg">
<path d="M0.777778 9H13.2222C13.65 9 14 8.6625 14 8.25C14 7.8375 13.65 7.5 13.2222 7.5H0.777778C0.35 7.5 0 7.8375 0 8.25C0 8.6625 0.35 9 0.777778 9ZM0.777778 5.25H13.2222C13.65 5.25 14 4.9125 14 4.5C14 4.0875 13.65 3.75 13.2222 3.75H0.777778C0.35 3.75 0 4.0875 0 4.5C0 4.9125 0.35 5.25 0.777778 5.25ZM0 0.75C0 1.1625 0.35 1.5 0.777778 1.5H13.2222C13.65 1.5 14 1.1625 14 0.75C14 0.3375 13.65 0 13.2222 0H0.777778C0.35 0 0 0.3375 0 0.75Z" fill="black"/>
</svg>
