<svg width="105" height="105" viewBox="0.362060546875 0.362060546875 104.27587890625 104.27587890625" fill="none" xmlns="http://www.w3.org/2000/svg">
<path d="M52.5 5.03472C58.1266 5.03472 63.5228 7.2699 67.5015 11.2485C71.4801 15.2272 73.7153 20.6234 73.7153 26.25C73.7153 31.8766 71.4801 37.2728 67.5015 41.2515C63.5228 45.2301 58.1266 47.4653 52.5 47.4653C46.8734 47.4653 41.4772 45.2301 37.4985 41.2515C33.5199 37.2728 31.2847 31.8766 31.2847 26.25C31.2847 20.6234 33.5199 15.2272 37.4985 11.2485C41.4772 7.2699 46.8734 5.03472 52.5 5.03472ZM52.5 70.6597C66.3916 70.6597 78.7134 73.4833 87.3757 77.8145C96.338 82.2956 99.9653 87.5566 99.9653 91.875V99.9653H5.03472V91.875C5.03472 87.5566 8.66203 82.2956 17.6243 77.8145C26.2866 73.4833 38.6084 70.6597 52.5 70.6597Z" stroke="#5599FF" stroke-width="10"/>
</svg>
