<svg width="204" height="157" viewBox="0.06040191650390625 0.401123046875 203.8791961669922 156.19775390625" fill="none" xmlns="http://www.w3.org/2000/svg">
<path d="M0 6.33616C0 4.65571 0.67165 3.04409 1.86719 1.85583C3.06274 0.667569 4.68424 1.29434e-05 6.375 1.29434e-05H70.0995C83.4105 1.29434e-05 95.132 6.75857 101.983 17.0147C105.47 11.7794 110.208 7.48492 115.773 4.51562C121.339 1.54632 127.558 -0.00517005 133.875 1.29434e-05H197.625C199.316 1.29434e-05 200.937 0.667569 202.133 1.85583C203.328 3.04409 204 4.65571 204 6.33616V133.591C203.998 134.426 203.83 135.253 203.506 136.023C203.182 136.794 202.709 137.493 202.113 138.082C201.517 138.67 200.81 139.136 200.033 139.453C199.255 139.77 198.423 139.931 197.583 139.928L132.286 139.488C128.908 139.464 125.559 140.108 122.433 141.381C119.308 142.655 116.468 144.532 114.078 146.906L106.513 154.433C105.921 155.022 105.219 155.489 104.445 155.808C103.671 156.126 102.842 156.29 102.004 156.29C101.167 156.29 100.337 156.126 99.5637 155.808C98.79 155.489 98.087 155.022 97.495 154.433L89.828 146.821C87.4618 144.466 84.6514 142.598 81.5578 141.324C78.4643 140.049 75.1482 139.394 71.7995 139.395H6.375C4.68424 139.395 3.06274 138.728 1.86719 137.539C0.67165 136.351 0 134.74 0 133.059L0 6.33616ZM108.375 135.019C115.202 129.652 123.666 126.759 132.371 126.816L191.25 127.213V12.6723H133.875C127.112 12.6723 120.626 15.3425 115.844 20.0956C111.062 24.8486 108.375 31.2951 108.375 38.0169V135.019ZM95.5995 37.9916C95.5927 31.2742 92.9032 24.8342 88.1217 20.0866C83.3403 15.3391 76.8581 12.6723 70.0995 12.6723H12.75V126.723H71.7995C80.4525 126.723 88.8505 129.646 95.625 135.002L95.5995 37.9916Z" fill="black"/>
</svg>
