<svg width="14" height="14" viewBox="0 0 14 14" fill="none" xmlns="http://www.w3.org/2000/svg">
<path d="M14 14L9.33333 9.33333M0 5.44444C-1.0654e-08 6.15942 0.140825 6.86739 0.414434 7.52794C0.688043 8.18849 1.08908 8.78868 1.59464 9.29425C2.1002 9.79981 2.7004 10.2008 3.36095 10.4745C4.0215 10.7481 4.72947 10.8889 5.44444 10.8889C6.15942 10.8889 6.86739 10.7481 7.52794 10.4745C8.18849 10.2008 8.78868 9.79981 9.29425 9.29425C9.79981 8.78868 10.2008 8.18849 10.4745 7.52794C10.7481 6.86739 10.8889 6.15942 10.8889 5.44444C10.8889 4.72947 10.7481 4.0215 10.4745 3.36095C10.2008 2.7004 9.79981 2.1002 9.29425 1.59464C8.78868 1.08908 8.18849 0.688043 7.52794 0.414434C6.86739 0.140825 6.15942 0 5.44444 0C4.72947 0 4.0215 0.140825 3.36095 0.414434C2.7004 0.688043 2.1002 1.08908 1.59464 1.59464C1.08908 2.1002 0.688043 2.7004 0.414434 3.36095C0.140825 4.0215 -1.0654e-08 4.72947 0 5.44444Z" stroke="#5599FF" stroke-width="1.5" stroke-linecap="round" stroke-linejoin="round"/>
</svg>
