<svg width="14" height="9" viewBox="0 0 14 9" fill="none" xmlns="http://www.w3.org/2000/svg">
<path fill-rule="evenodd" clip-rule="evenodd" d="M0 0.586957C0 0.431286 0.063214 0.281991 0.175736 0.171916C0.288258 0.0618398 0.44087 0 0.6 0H13.4C13.5591 0 13.7117 0.0618398 13.8243 0.171916C13.9368 0.281991 14 0.431286 14 0.586957C14 0.742627 13.9368 0.891922 13.8243 1.002C13.7117 1.11207 13.5591 1.17391 13.4 1.17391H0.6C0.44087 1.17391 0.288258 1.11207 0.175736 1.002C0.063214 0.891922 0 0.742627 0 0.586957ZM0 4.5C0 4.34433 0.063214 4.19503 0.175736 4.08496C0.288258 3.97488 0.44087 3.91304 0.6 3.91304H9.4C9.55913 3.91304 9.71174 3.97488 9.82426 4.08496C9.93679 4.19503 10 4.34433 10 4.5C10 4.65567 9.93679 4.80497 9.82426 4.91504C9.71174 5.02512 9.55913 5.08696 9.4 5.08696H0.6C0.44087 5.08696 0.288258 5.02512 0.175736 4.91504C0.063214 4.80497 0 4.65567 0 4.5ZM0 8.41304C0 8.25737 0.063214 8.10808 0.175736 7.998C0.288258 7.88793 0.44087 7.82609 0.6 7.82609H4.6C4.75913 7.82609 4.91174 7.88793 5.02426 7.998C5.13679 8.10808 5.2 8.25737 5.2 8.41304C5.2 8.56871 5.13679 8.71801 5.02426 8.82808C4.91174 8.93816 4.75913 9 4.6 9H0.6C0.44087 9 0.288258 8.93816 0.175736 8.82808C0.063214 8.71801 0 8.56871 0 8.41304Z" fill="black"/>
</svg>
